<mxfile host="app.diagrams.net" modified="2023-05-31T10:36:54.616Z" agent="Mozilla/5.0 (Macintosh; Intel Mac OS X 10_15_7) AppleWebKit/537.36 (KHTML, like Gecko) Chrome/112.0.0.0 Safari/537.36" version="21.3.2" etag="PMlegMoCU5SY6FUr5zHl" type="github">
  <diagram name="第 1 页" id="Ee1AQYle9RLk6feMo5gu">
    <mxGraphModel>
      <root>
        <mxCell id="0" />
        <mxCell id="1" parent="0" />
      </root>
    </mxGraphModel>
  </diagram>
</mxfile>
